<!DOCTYPE svg PUBLIC "-//W3C//DTD SVG 1.1//EN" "http://www.w3.org/Graphics/SVG/1.1/DTD/svg11.dtd">
<!-- Uploaded to: SVG Repo, www.svgrepo.com, Transformed by: SVG Repo Mixer Tools -->
<svg fill="#1c71d8" width="256px" height="256px" viewBox="0 0 32.00 32.00" version="1.1" xmlns="http://www.w3.org/2000/svg" transform="matrix(-1, 0, 0, 1, 0, 0)rotate(0)" stroke="#1c71d8" stroke-width="0.00032">
<g id="SVGRepo_bgCarrier" stroke-width="0"/>
<g id="SVGRepo_tracerCarrier" stroke-linecap="round" stroke-linejoin="round" stroke="#CCCCCC" stroke-width="0.576"/>
<g id="SVGRepo_iconCarrier"> <title>flux</title> <path d="M0 16q0 3.264 1.28 6.208t3.392 5.12 5.12 3.424 6.208 1.248 6.208-1.248 5.12-3.424 3.392-5.12 1.28-6.208-1.28-6.208-3.392-5.12-5.088-3.392-6.24-1.28q-3.264 0-6.208 1.28t-5.12 3.392-3.392 5.12-1.28 6.208zM4.224 13.824q0.512-2.752 2.176-4.992t4.192-3.52 5.408-1.312q3.936 0 7.008 2.304t4.32 5.92q-0.448 1.408-1.408 2.368-1.184 1.152-2.72 1.568t-3.072 0-2.72-1.568q-1.76-1.76-4.096-2.464t-4.768-0.288-4.32 1.984zM4.672 19.808q0.448-1.408 1.44-2.4 1.76-1.728 4.256-1.728t4.224 1.728q1.76 1.76 4.128 2.496t4.736 0.256 4.32-1.952q-0.512 2.752-2.176 4.992t-4.192 3.52-5.408 1.28q-3.936 0-7.008-2.272t-4.32-5.92z"/> </g>
</svg>